<?xml version="1.0" encoding="UTF-8"?>
<svg xmlns="http://www.w3.org/2000/svg" width="64" height="64" viewBox="0 0 64 64" fill="none" shape-rendering="geometricPrecision">
  <title>Open-AwA 简化网页图标</title>
  <desc>为 16px 和 32px 输出简化的紫罗兰底板与两层软晶轮廓。</desc>
  <defs>
    <linearGradient id="favicon-base" x1="8" y1="56" x2="56" y2="8" gradientUnits="userSpaceOnUse">
      <stop stop-color="#5E3FD6"/>
      <stop offset="0.58" stop-color="#7654FF"/>
      <stop offset="1" stop-color="#A678FF"/>
    </linearGradient>
  </defs>
  <rect x="2" y="2" width="60" height="60" rx="16" fill="url(#favicon-base)"/>
  <path d="M16.5 31.5C16.5 20.1 24.1 12.7 34.4 12.7c10.1 0 17.3 7.1 17.3 17.1 0 11.7-8.7 21.5-20.5 21.5-9.5 0-16.7-6.6-16.7-15.1 0-1.8.7-3.4 2-4.7Z" fill="#FFF9F5"/>
  <path d="M23.5 31.3c0-7.4 5.1-12.4 12.1-12.4 6.5 0 10.9 4.7 10.9 11.1 0 8.1-5.8 14.7-13.5 14.7-6.2 0-10.7-4.1-10.7-9.5 0-1.5.4-2.8 1.2-3.9Z" fill="#7654FF"/>
</svg>
